HIERARCHY
ROOT Hips
{
    OFFSET 0.000000 0.000000 0.000000
    CHANNELS 6 Xposition Yposition Zposition Zrotation Xrotation Yrotation
    JOINT Spine
    {
        OFFSET -0.000000 8.505030 0.000000
        CHANNELS 3 Zrotation Xrotation Yrotation
        JOINT Spine1
        {
            OFFSET -0.000000 25.070629 0.000000
            CHANNELS 3 Zrotation Xrotation Yrotation
            JOINT Neck
            {
                OFFSET -0.000000 24.967667 2.269788
                CHANNELS 3 Zrotation Xrotation Yrotation
                JOINT Head
                {
                    OFFSET -0.000000 14.520781 -2.074397
                    CHANNELS 3 Zrotation Xrotation Yrotation
                    End Site
                    {
                        OFFSET -0.000000 25.929966 0.000000
                    }
                }
            }
            JOINT LeftShoulder
            {
                OFFSET 4.117346 22.983784 -0.389865
                CHANNELS 3 Zrotation Xrotation Yrotation
                JOINT LeftArm
                {
                    OFFSET 11.957758 0.000000 0.000000
                    CHANNELS 3 Zrotation Xrotation Yrotation
                    JOINT LeftForeArm
                    {
                        OFFSET 31.907600 0.000000 0.000000
                        CHANNELS 3 Zrotation Xrotation Yrotation
                        JOINT LeftHand
                        {
                            OFFSET 28.601147 0.000000 0.000000
                            CHANNELS 3 Zrotation Xrotation Yrotation
                            End Site
                            {
                                OFFSET 15.557981 0.000000 0.000000
                            }
                        }
                    }
                }
            }
            JOINT RightShoulder
            {
                OFFSET -4.061940 22.983784 -0.389865
                CHANNELS 3 Zrotation Xrotation Yrotation
                JOINT RightArm
                {
                    OFFSET -11.957758 0.000000 0.000000
                    CHANNELS 3 Zrotation Xrotation Yrotation
                    JOINT RightForeArm
                    {
                        OFFSET -31.907600 0.000000 0.000000
                        CHANNELS 3 Zrotation Xrotation Yrotation
                        JOINT RightHand
                        {
                            OFFSET -28.601147 0.000000 0.000000
                            CHANNELS 3 Zrotation Xrotation Yrotation
                            End Site
                            {
                                OFFSET -15.557981 0.000000 0.000000
                            }
                        }
                    }
                }
            }
        }
    }
    JOINT LeftUpLeg
    {
        OFFSET 10.371986 0.000000 0.000000
        CHANNELS 3 Zrotation Xrotation Yrotation
        JOINT LeftLeg
        {
            OFFSET -0.000000 -42.486427 0.000000
            CHANNELS 3 Zrotation Xrotation Yrotation
            JOINT LeftFoot
            {
                OFFSET -0.000000 -48.322342 0.000000
                CHANNELS 3 Zrotation Xrotation Yrotation
                JOINT LeftToeBase
                {
                    OFFSET -0.000000 -6.741791 15.557981
                    CHANNELS 3 Zrotation Xrotation Yrotation
                    End Site
                    {
                        OFFSET -0.000000 0.000000 4.148795
                    }
                }
            }
        }
    }
    JOINT RightUpLeg
    {
        OFFSET -10.371986 0.000000 0.000000
        CHANNELS 3 Zrotation Xrotation Yrotation
        JOINT RightLeg
        {
            OFFSET -0.000000 -42.486427 0.000000
            CHANNELS 3 Zrotation Xrotation Yrotation
            JOINT RightFoot
            {
                OFFSET -0.000000 -48.322342 0.000000
                CHANNELS 3 Zrotation Xrotation Yrotation
                JOINT RightToeBase
                {
                    OFFSET -0.000000 -6.741791 15.557981
                    CHANNELS 3 Zrotation Xrotation Yrotation
                    End Site
                    {
                        OFFSET -0.000000 0.000000 4.148795
                    }
                }
            }
        }
    }
}
MOTION
Frames:    7
Frame Time:    0.008333
-50.453770    98.947151    58.828396    -1.831065    -0.194652    89.707817    0.547530    -7.040226    0.623109    2.055835    -3.111583    0.645340    -1.057263    29.983130    -2.724987    -0.922524    -3.743249    -3.139585    13.007422    0.022680    -11.133718    -11.014909    -3.901714    -2.355891    -1.066632    -7.034959    28.157253    -1.651755    -6.667254    -7.126185    -17.012703    2.650393    -8.876111    21.523968    -5.748985    14.465726    2.700418    -0.631174    -18.575365    -4.768418    0.032629    -5.332335    3.648246    3.700353    5.597223    -1.376716    5.096682    5.486462    -4.118261    -5.732412    7.597384    0.000000    0.000000    0.000000    -3.369472    4.581066    -0.178631    1.933288    1.428453    1.636412    4.469679    -5.491557    -12.125494    0.000000    0.000000    0.000000    
-50.466583    98.944405    58.848106    -1.841771    -0.196005    89.707329    0.533290    -7.077973    0.615144    2.082200    -3.052131    0.637725    -1.057807    29.983992    -2.695263    -0.989221    -3.638032    -3.119545    12.949071    0.046082    -11.165688    -11.008601    -3.880388    -2.328452    -1.065830    -7.030224    28.191042    -1.507659    -6.671878    -7.080822    -16.973682    2.709282    -8.857197    21.512222    -5.809564    14.514039    2.669821    -0.684240    -18.612024    -4.674927    -0.026370    -5.394720    3.661407    3.667220    5.593012    -1.372743    5.127350    5.477242    -4.116641    -5.753026    7.600535    0.000000    0.000000    0.000000    -3.368201    4.565688    -0.176125    1.951708    1.427631    1.653100    4.435308    -5.500150    -12.137258    0.000000    0.000000    0.000000    
-50.483112    98.942825    58.868725    -1.858405    -0.197771    89.705109    0.470081    -7.120279    0.583955    2.209385    -2.995661    0.612498    -1.117367    29.991978    -2.656000    -1.088762    -3.517143    -3.103051    12.824926    0.070743    -11.164887    -10.993408    -3.888514    -2.293682    -1.013198    -7.049350    28.243521    -1.438832    -6.707556    -7.105711    -17.005156    2.704435    -8.802189    21.513449    -5.862744    14.545605    2.694373    -0.681138    -18.668087    -4.646057    -0.019182    -5.394110    3.678089    3.625425    5.599295    -1.376873    5.152819    5.505145    -4.092083    -5.748849    7.573430    0.000000    0.000000    0.000000    -3.360791    4.540599    -0.156836    1.954424    1.426098    1.636500    4.454975    -5.501322    -12.117477    0.000000    0.000000    0.000000    
-50.498997    98.941185    58.889175    -1.871305    -0.198846    89.706993    0.539523    -7.143041    0.582797    2.070804    -2.969184    0.602758    -1.027914    30.039835    -2.654780    -1.184668    -3.443032    -3.106018    12.881939    0.084725    -11.179047    -11.014492    -3.861932    -2.295172    -1.005257    -7.059099    28.291147    -1.377477    -6.723177    -7.059979    -16.929722    2.699653    -8.841097    21.548861    -5.873114    14.633102    2.743390    -0.519095    -18.739376    -4.425045    0.142788    -5.426312    3.690863    3.584179    5.601850    -1.373080    5.189157    5.493918    -4.090509    -5.768104    7.584503    0.000000    0.000000    0.000000    -3.356485    4.522000    -0.144084    1.966473    1.422873    1.655525    4.440213    -5.508465    -12.149813    0.000000    0.000000    0.000000    
-50.514187    98.940155    58.906101    -1.882306    -0.192290    89.703079    0.546622    -7.161561    0.568700    2.042684    -2.945405    0.586985    -0.944529    30.493399    -2.695892    -1.365109    -4.091013    -3.180322    12.886560    0.109872    -11.158979    -11.039922    -3.875604    -2.299952    -0.972364    -7.093735    28.316668    -1.132987    -6.781322    -7.006945    -16.909899    2.699916    -8.850175    21.589447    -5.855538    14.707891    2.713780    -0.621506    -18.742146    -4.708108    0.050971    -5.457995    3.693206    3.550237    5.622660    -1.369305    5.215513    5.466022    -4.104464    -5.768209    7.605994    0.000000    0.000000    0.000000    -3.362937    4.503269    -0.118493    1.981035    1.417247    1.613030    4.440775    -5.510222    -12.118985    0.000000    0.000000    0.000000    
-50.525414    98.937080    58.927666    -1.885348    -0.199145    89.714584    0.561105    -7.182451    0.539183    2.025994    -2.905544    0.555370    -0.991224    30.567602    -2.659428    -1.387068    -4.083853    -3.153516    12.879962    0.108539    -11.101939    -11.065752    -3.856613    -2.326193    -0.961081    -7.087383    28.348562    -1.376595    -6.763706    -6.920446    -16.927343    2.678096    -8.837724    21.711267    -5.636211    14.776635    2.588628    -0.654787    -18.790585    -4.715930    -0.002609    -5.435966    3.716056    3.531472    5.625910    -1.370757    5.226781    5.447602    -4.118490    -5.781026    7.610653    0.000000    0.000000    0.000000    -3.345510    4.497941    -0.122218    1.983798    1.414197    1.615010    4.442622    -5.514282    -12.119319    0.000000    0.000000    0.000000    
-50.539131    98.933052    58.944141    -1.899908    -0.195353    89.707535    0.567939    -7.216327    0.524305    2.014694    -2.859826    0.538932    -1.049757    30.627613    -2.611851    -1.388448    -4.066813    -3.113013    12.869031    0.110189    -11.054185    -11.077005    -3.867472    -2.348648    -0.964552    -7.110558    28.392765    -1.401403    -6.783759    -6.951244    -16.983244    2.613448    -8.873481    21.771765    -5.794384    14.820531    2.753526    -0.570875    -18.750471    -4.812456    0.112862    -5.460302    3.720954    3.502088    5.638627    -1.369226    5.241904    5.447076    -4.102460    -5.788354    7.609150    0.000000    0.000000    0.000000    -3.343958    4.471191    -0.105376    1.986217    1.420107    1.578344    4.398156    -5.518340    -12.077408    0.000000    0.000000    0.000000    
